<?xml version="1.0" encoding="iso-8859-1"?><!-- Generator: Adobe Illustrator 16.0.0, SVG Export Plug-In . SVG Version: 6.00 Build 0) --><!DOCTYPE svg PUBLIC "-//W3C//DTD SVG 1.1//EN" "http://www.w3.org/Graphics/SVG/1.1/DTD/svg11.dtd"><svg version="1.1" id="Layer_1" xmlns="http://www.w3.org/2000/svg" xmlns:xlink="http://www.w3.org/1999/xlink" x="0px" y="0px" width="192.756px" height="192.756px" viewBox="0 0 192.756 192.756" style="enable-background:new 0 0 192.756 192.756;" xml:space="preserve"><g><polygon style="fill-rule:evenodd;clip-rule:evenodd;fill:#FFFFFF;" points="0,0 192.756,0 192.756,192.756 0,192.756 0,0	"/><path style="fill-rule:evenodd;clip-rule:evenodd;fill:#2267AD;" d="M86.538,105.278c2.396,0.932,4.792,1.931,7.122,3.062	c-7.455,2.995-14.71,6.59-21.566,10.717c-2.33-1.199-4.726-2.396-7.122-3.462C71.894,111.602,79.083,108.141,86.538,105.278	L86.538,105.278z"/><path style="fill-rule:evenodd;clip-rule:evenodd;fill:#2267AD;" d="M77.618,102.15c-7.721,2.463-15.177,5.657-22.299,9.518	c2.263,0.866,4.526,1.731,6.723,2.663c6.856-4.061,14.111-7.455,21.633-10.117C81.678,103.481,79.682,102.749,77.618,102.15	L77.618,102.15z"/><path style="fill-rule:evenodd;clip-rule:evenodd;fill:#CD2E29;" d="M133.73,116.794c0.133,0.399,0.467,0.532,0.799,0.532	c0.199,0,0.4,0,0.533-0.133c0.066-0.066,0.133-0.2,0.133-0.333c0-0.266-0.199-0.399-0.467-0.399l-0.465-0.133	c-0.133-0.067-0.334-0.067-0.467-0.2s-0.199-0.332-0.199-0.532c0-0.532,0.467-0.731,0.932-0.731c0.4,0,0.799,0.199,0.932,0.665	l-0.332,0.066c0-0.267-0.334-0.466-0.666-0.466c-0.199,0-0.533,0.133-0.533,0.399c0,0.333,0.201,0.399,0.467,0.466l0.398,0.066	c0.201,0.066,0.4,0.133,0.533,0.199c0.133,0.2,0.199,0.334,0.199,0.6c0,0.199-0.066,0.466-0.266,0.599	c-0.199,0.134-0.467,0.2-0.732,0.2c-0.533,0-0.865-0.267-1.064-0.799L133.73,116.794L133.73,116.794z"/><polygon style="fill-rule:evenodd;clip-rule:evenodd;fill:#CD2E29;" points="136.326,117.593 136.061,117.593 136.061,114.931	136.525,114.931 137.393,117.06 138.123,114.931 138.656,114.931 138.656,117.593 138.324,117.593 138.324,115.263	138.324,115.263 137.457,117.593 137.191,117.593 136.326,115.263 136.326,115.263 136.326,117.593	"/><path style="fill-rule:evenodd;clip-rule:evenodd;fill:#CD2E29;" d="M102.713,104.946c-6.125-2.93-12.448-5.393-18.904-7.389	c-2.33,0.665-4.593,1.397-6.79,2.13c6.656,1.997,13.18,4.526,19.437,7.521C98.52,106.409,100.582,105.678,102.713,104.946	L102.713,104.946z"/><path style="fill-rule:evenodd;clip-rule:evenodd;fill:#CD2E29;" d="M112.631,102.017c-6.191-2.729-12.648-4.992-19.238-6.789	c-2.13,0.399-4.193,0.865-6.256,1.397c6.523,1.931,12.912,4.327,19.037,7.256C108.303,103.215,110.5,102.55,112.631,102.017	L112.631,102.017z"/><path style="fill-rule:evenodd;clip-rule:evenodd;fill:#CD2E29;" d="M128.605,107.342c-15.643,5.259-30.287,12.78-43.532,22.166	c3.328,2.063,6.523,4.193,9.651,6.522c12.514-9.918,26.426-18.172,41.336-24.429C133.598,110.071,131.135,108.673,128.605,107.342	L128.605,107.342z"/><path style="fill-rule:evenodd;clip-rule:evenodd;fill:#CD2E29;" d="M117.822,102.283c-16.242,4.26-31.484,11.183-45.263,20.368	c3.062,1.531,6.124,3.129,9.119,4.859c13.513-9.319,28.49-16.641,44.464-21.434C123.414,104.746,120.684,103.415,117.822,102.283	L117.822,102.283z"/><path style="fill-rule:evenodd;clip-rule:evenodd;fill:#2267AD;" d="M73.158,70.533c3.927,0,5.924,2.929,5.924,6.856	c0,4.061-1.931,6.923-5.924,6.923c-4.06,0-5.924-2.862-5.924-6.923C67.234,73.462,69.231,70.533,73.158,70.533L73.158,70.533z M73.158,81.649c1.065,0,1.531-0.932,1.531-4.26c0-3.062-0.333-4.193-1.531-4.193c-1.198,0-1.531,1.131-1.531,4.193	C71.627,80.717,72.093,81.649,73.158,81.649L73.158,81.649z"/><path style="fill-rule:evenodd;clip-rule:evenodd;fill:#2267AD;" d="M81.812,73.861h-1.731v-2.929h1.731v-1.464	c0-3.262,1.598-4.46,4.393-4.46c0.799,0,1.464,0.133,2.13,0.2v3.262c-0.2-0.066-0.532-0.133-0.798-0.133	c-1.131,0-1.531,0.466-1.531,1.264v1.332h2.329v2.929h-2.329v10.184h-4.194V73.861L81.812,73.861z"/><path style="fill-rule:evenodd;clip-rule:evenodd;fill:#2267AD;" d="M32.355,74.593c0-0.799-0.333-1.331-1.064-1.331	c-1.065,0-1.398,0.932-1.398,1.73l-3.728-0.799c0.465-2.529,2.862-3.594,5.258-3.594c2.529,0,5.192,1.064,5.192,3.993v7.322	c0,1.464,0.2,1.93,0.399,2.13h-4.393c-0.066-0.399-0.133-0.999-0.133-1.198c-0.732,0.732-1.997,1.465-3.195,1.465	c-2.13,0-3.728-1.465-3.661-3.861c0.066-3.395,3.927-4.46,6.723-4.792V74.593L32.355,74.593z M32.355,77.721	c-1.464,0.133-2.596,0.732-2.596,2.396c0,0.932,0.466,1.398,1.265,1.398c0.466,0,0.999-0.333,1.331-0.799V77.721L32.355,77.721z"/><path style="fill-rule:evenodd;clip-rule:evenodd;fill:#2267AD;" d="M43.338,74.659v9.386h-4.26V70.932h4.127l0.067,1.332l0,0	c0.932-0.932,2.063-1.664,3.727-1.664c1.864,0,2.929,1.264,2.929,3.062v10.384h-4.26v-9.053c0-0.732-0.267-1.131-0.999-1.131	C44.204,73.861,43.737,74.127,43.338,74.659L43.338,74.659z"/><polygon style="fill-rule:evenodd;clip-rule:evenodd;fill:#2267AD;" points="52.524,65.407 56.784,65.407 56.784,74.859	56.85,74.859 59.979,70.932 64.172,70.932 60.645,74.926 64.172,84.045 59.779,84.045 57.716,78.32 57.649,78.32 56.784,79.319	56.784,84.045 52.524,84.045 52.524,65.407	"/><path style="fill-rule:evenodd;clip-rule:evenodd;fill:#2267AD;" d="M21.106,74.327c1.997,0.666,3.461,2.33,3.461,4.727	c0,3.194-2.529,4.992-6.124,4.992h-7.123V65.407h7.322c3.328,0,5.458,1.997,5.458,4.526c0,2.463-1.664,3.728-2.995,4.26V74.327	L21.106,74.327z M15.848,80.584h1.73c1.065,0,2.396-0.466,2.396-2.33c0-1.397-0.865-2.329-2.396-2.329h-1.73V80.584L15.848,80.584z M15.848,72.795h1.597c1.664,0,2.33-0.932,2.33-1.997c0-1.797-1.198-2.063-2.263-2.063h-1.664V72.795L15.848,72.795z"/><path style="fill-rule:evenodd;clip-rule:evenodd;fill:#2267AD;" d="M174.268,74.593c0-0.799-0.4-1.331-1.131-1.331	c-1,0-1.332,0.932-1.398,1.73l-3.66-0.799c0.465-2.529,2.861-3.594,5.258-3.594c2.529,0,5.191,1.064,5.191,3.993v7.322	c0,1.464,0.199,1.93,0.334,2.13h-4.328c-0.066-0.399-0.133-0.999-0.133-1.198c-0.732,0.732-1.996,1.465-3.262,1.465	c-2.062,0-3.727-1.465-3.66-3.861c0.133-3.395,3.994-4.46,6.789-4.792V74.593L174.268,74.593z M174.268,77.721	c-1.465,0.133-2.596,0.732-2.596,2.396c0,0.932,0.465,1.398,1.197,1.398c0.533,0,0.998-0.333,1.398-0.799V77.721L174.268,77.721z"	/><path style="fill-rule:evenodd;clip-rule:evenodd;fill:#2267AD;" d="M130.67,78.387c-0.068,1.131,0.266,3.128,1.996,3.128	c0.998,0,1.863-0.799,2.062-1.797l2.863,0.999c-0.199,0.599-1.465,3.595-5.26,3.595c-4.061,0-5.924-3.262-5.924-6.923	c0-3.728,1.998-6.856,5.857-6.856c4.061,0,5.525,3.528,5.525,6.989v0.865H130.67L130.67,78.387z M133.863,75.857	c0-1.198-0.133-2.662-1.598-2.662c-1.197,0-1.664,1.464-1.596,2.662H133.863L133.863,75.857z"/><polygon style="fill-rule:evenodd;clip-rule:evenodd;fill:#2267AD;" points="149.174,70.932 153.434,70.932 153.434,84.045	149.174,84.045 149.174,70.932	"/><polygon style="fill-rule:evenodd;clip-rule:evenodd;fill:#2267AD;" points="149.174,65.407 153.434,65.407 153.434,69.202	149.174,69.202 149.174,65.407	"/><path style="fill-rule:evenodd;clip-rule:evenodd;fill:#2267AD;" d="M162.818,75.791c0-0.532,0-1.198-0.199-1.664	c-0.199-0.533-0.533-0.932-1.197-0.932c-1.398,0-1.598,1.73-1.598,4.393c0,2.929,0.465,3.927,1.598,3.927	c1.463,0,1.596-1.531,1.596-2.529l3.328,0.466c-0.332,3.195-2.195,4.859-5.258,4.859c-3.793,0-5.791-3.328-5.791-6.59	c0-3.594,1.998-7.188,5.99-7.188c4.461,0,5.193,3.927,5.193,5.258H162.818L162.818,75.791z"/><path style="fill-rule:evenodd;clip-rule:evenodd;fill:#2267AD;" d="M95.723,65.407h6.191l3.928,18.638h-4.527l-0.732-3.794h-4.327	l-0.865,3.794h-4.06L95.723,65.407L95.723,65.407z M96.855,76.989h3.061l-1.33-7.588h-0.135L96.855,76.989L96.855,76.989z"/><path style="fill-rule:evenodd;clip-rule:evenodd;fill:#2267AD;" d="M139.521,70.932h4.127v1.731h0.066	c0.865-1.398,2.463-2.063,4.127-2.063v4.26c-0.533-0.2-0.998-0.333-1.73-0.333c-1.131,0-1.863,0.399-2.33,0.999v8.52h-4.26V70.932	L139.521,70.932z"/><path style="fill-rule:evenodd;clip-rule:evenodd;fill:#2267AD;" d="M118.021,74.659v9.386h-4.193v-8.986	c0-0.732-0.199-1.198-0.998-1.198c-0.4,0-1.064,0.333-1.398,0.798v9.386h-4.193V70.932h4.127l0.066,1.332l0,0	c0.932-0.865,2.264-1.664,3.795-1.664c1.33,0,2.195,0.732,2.596,1.73h0.066c0.732-0.799,1.996-1.73,3.729-1.73	c1.797,0,2.994,1.131,2.994,2.995v10.451h-4.193v-8.986c0-0.732-0.199-1.198-0.998-1.198	C118.887,73.861,118.289,74.327,118.021,74.659L118.021,74.659z"/><path style="fill-rule:evenodd;clip-rule:evenodd;fill:#2267AD;" d="M180.592,82.514c0-0.999,0.797-1.797,1.863-1.797	c0.998,0,1.797,0.799,1.797,1.797c0,0.998-0.799,1.797-1.797,1.797C181.389,84.312,180.592,83.512,180.592,82.514L180.592,82.514z M180.924,82.514c0,0.798,0.666,1.397,1.531,1.397c0.799,0,1.465-0.599,1.465-1.397c0-0.799-0.666-1.465-1.465-1.465	C181.59,81.049,180.924,81.715,180.924,82.514L180.924,82.514z"/><path style="fill-rule:evenodd;clip-rule:evenodd;fill:#2267AD;" d="M183.32,83.512h-0.332l-0.6-0.932h-0.334v0.932h-0.332v-1.997	h0.932c0.133,0,0.334,0,0.467,0.066c0.199,0.133,0.266,0.266,0.266,0.466c0,0.399-0.332,0.533-0.666,0.533L183.32,83.512	L183.32,83.512z M182.389,82.314c0.266,0,0.666,0.066,0.666-0.267c0-0.266-0.201-0.333-0.467-0.333h-0.533v0.599H182.389	L182.389,82.314z"/></g></svg>