<?xml version="1.0" encoding="utf-8"?><!-- Generator: Adobe Illustrator 16.0.0, SVG Export Plug-In . SVG Version: 6.00 Build 0) --><!DOCTYPE svg PUBLIC "-//W3C//DTD SVG 1.1//EN" "http://www.w3.org/Graphics/SVG/1.1/DTD/svg11.dtd"><svg version="1.1" id="Layer_1" xmlns="http://www.w3.org/2000/svg" xmlns:xlink="http://www.w3.org/1999/xlink" x="0px" y="0px" width="759.083px" height="699.62px" viewBox="0 0 759.083 699.62" enable-background="new 0 0 759.083 699.62" xml:space="preserve"><g id="Text_Logo"><path id="R" fill="#404040" d="M751.083,685.042c-3.406,3.75-7.031,2.031-8,0.875l-23.5-29.584h1.5	c45-9.666,33.625-63.166-3.243-64.084h-77v105.168h12.25v-34.459c0-4.375,1.625-6.625,6.5-6.625h44.618l30.75,38.459	c6.156,5.281,17.156,7.5,24.125,0L751.083,685.042z M658.59,644.833c-4.417,0-5.5,2.25-5.5,2.25v-43.166h64.75	c27.327,1.087,28.16,39.504,0,40.916H658.59z"/><path id="E" fill="#404040" d="M530.549,592.249h-97v105.168h100.25v-12.032h-88v-29.843c0-4.375,1.625-6.625,6.5-6.625h52.25	v-11.5h-53.25c-4.417,0-5.5,2.25-5.5,2.25v-35.75h84.75V592.249z"/><path id="B" fill="#404040" d="M313.333,643.417c21-15.5,12-47.75-14.5-51.168h-80.25v105.168h80.25	C324.747,694.074,337.392,661.175,313.333,643.417z M230.833,603.917h66.75c21.5,2.5,20.75,31.5,0,33.5h-61.25	c-4.417,0-5.5,2.25-5.5,2.25V603.917z M297.583,685.385h-66.75v-29.843c0-4.375,1.625-6.625,6.5-6.625h60.25	C320.467,651.813,319.724,683.062,297.583,685.385z"/><path id="U" fill="#404040" d="M65.333,699.582c9,0,46-5.915,46-40.667v-66.666H99v64c0,30.828-34.333,29.333-34.333,29.333H53.833	c0,0-34.333,1.495-34.333-29.333v-46c0-9.497-7.5-18-19.5-18v12.003c4.833,0,7.167,4.5,7.167,7.997v46.666	c0,34.752,37,40.667,46,40.667H65.333z"/></g><g id="Image_Logo"><linearGradient id="Backdrop_1_" gradientUnits="userSpaceOnUse" x1="135.5518" y1="13.7183" x2="623.1171" y2="501.2836"><stop offset="0" style="stop-color:#464451"/><stop offset="0.5" style="stop-color:#2B2735"/><stop offset="1" style="stop-color:#130B15"/></linearGradient><path id="Backdrop" fill="url(#Backdrop_1_)" d="M590.001,0H168.667c-25.865,0-46.833,20.968-46.834,46.832l0.001,421.334	c0,25.865,20.968,46.834,46.834,46.834H590c25.865,0,46.833-20.967,46.834-46.832V46.834C636.833,20.969,615.866,0.001,590.001,0z"	/><linearGradient id="Stripe_1_" gradientUnits="userSpaceOnUse" x1="150.5347" y1="28.7012" x2="608.1329" y2="486.2994"><stop offset="0" style="stop-color:#FEFEFE"/><stop offset="1" style="stop-color:#97949B"/></linearGradient><path id="Stripe" fill="url(#Stripe_1_)" d="M588.372,20.5H170.333c-15.457,0-27.988,12.526-27.998,27.981V466.5	c0,15.458,12.525,27.989,27.98,28h418.019c15.446,0,27.969-12.506,27.999-27.944V48.461	C616.311,33.027,603.805,20.521,588.372,20.5z M595.333,465.5c0,4.418-3.582,8-8,8h-416c-4.418,0-8-3.582-8-8v-416	c0-4.419,3.582-8,8-8h416c4.418,0,8,3.581,8,8V465.5z"/><linearGradient id="U_2_" gradientUnits="userSpaceOnUse" x1="253.2192" y1="112.0938" x2="505.4485" y2="364.323"><stop offset="0" style="stop-color:#F2F2F2"/><stop offset="1" style="stop-color:#B6B6B6"/></linearGradient><path id="U_1_" fill="url(#U_2_)" d="M420.333,398.583c71.5,0,100.167-39.999,100.167-88.332v-175	c0-10.505-7.501-18.834-19.5-18.834h-90.333v21.334c0,8.458,6.458,18.833,19,18.833h52.166v148.668	c0,51.665-39,54.999-62.333,54.999h-80.332c-23.333,0-62.333-3.334-62.333-54.999V156.584H348v-21.333	c0-8.459-6.458-18.834-19-18.834h-71.333c-11.999,0-19.5,8.329-19.5,18.834v175c0,48.333,28.667,88.332,100.167,88.332H420.333z"/></g></svg>